# xmcd
#
# Track frame offsets: 
#        150
#        9687
#        22254
#        37305
#        50339
#        64501
#        74466
#        85106
#        96195
#        114824
#        127483
#        139898
#        159306
#        170709
#        184040
#        200263
#
# Disc length: 2821 seconds
#
# Revision: 0
# Processed by: cddbd v1.5.2PL0 Copyright (c) Steve Scherf et al.
# Submitted via: ExactAudioCopy v0.99pb4
#
DISCID=e60b0310
DTITLE=Cornell Hurd Band - Beyond The Purple Hills
DYEAR=2007
DGENRE=Country
TTITLE0=Come On Home To Houston
TTITLE1=Texas Eyes
TTITLE2=When The Whiskey Turns To Tears
TTITLE3=I Can't Help Being Cool
TTITLE4=The Big Lie
TTITLE5=I Should Have Married Marie
TTITLE6=Mom's Tattoo
TTITLE7=Moon's Rock
TTITLE8=Dedicated To You
TTITLE9=Holding Hands
TTITLE10=Never Going Back (To Nashville)
TTITLE11=You've Got Take Card Of Yourself
TTITLE12=Honky Tonk Lifestyle
TTITLE13=It's Just The Whiskey Talkin'
TTITLE14=Beyond The Purple Hills
TTITLE15=Ola
EXTD=
EXTT0=
EXTT1=
EXTT2=
EXTT3=
EXTT4=
EXTT5=
EXTT6=
EXTT7=
EXTT8=
EXTT9=
EXTT10=
EXTT11=
EXTT12=
EXTT13=
EXTT14=
EXTT15=
PLAYORDER=
